<svg xmlns="http://www.w3.org/2000/svg" width="39" height="42" viewBox="0 0 39 42"><defs><filter id="a" width="64.2" height="66.2" x="-13.1" y="-12.1" filterUnits="userSpaceOnUse"><feOffset in="SourceGraphic" result="FeOffset1249Out"/><feGaussianBlur in="FeOffset1249Out" result="FeGaussianBlur1250Out" stdDeviation="3.44 3.44"/></filter><mask id="b" width="2.04" height="2.04" x="-1.02" y="-1.02"><path fill="#fff" d="M5.5 6.5h27v29h-27z"/><path d="M29.63 32.545C29.63 33.9 28.494 35 27.094 35s-2.538-1.101-2.538-2.455c0-1.353 1.138-2.454 2.538-2.454s2.538 1.101 2.538 2.454zm-1.352 0c0-.631-.532-1.145-1.185-1.145s-1.185.514-1.185 1.145c0 .632.532 1.146 1.185 1.146s1.184-.514 1.184-1.146zm-11.507 0c0 1.354-1.138 2.455-2.538 2.455s-2.538-1.101-2.538-2.455c0-1.353 1.138-2.454 2.538-2.454s2.538 1.101 2.538 2.454zm-1.353 0c0-.631-.532-1.145-1.185-1.145s-1.185.514-1.185 1.145c0 .632.532 1.146 1.185 1.146s1.185-.514 1.185-1.146zM32 13.22v7.2c0 1.423-1.182 2.582-2.646 2.615h-.002l-15.568 1.309a.637.637 0 01-.06.003c-.021 0-.042-.008-.064-.01a.677.677 0 01-.104.01c-.747 0-1.354.587-1.354 1.31 0 .72.607 1.308 1.354 1.308h15.736c.374 0 .677.292.677.655a.665.665 0 01-.676.654H13.556c-1.493 0-2.707-1.174-2.707-2.618 0-1.206.848-2.22 1.997-2.524L8.738 9.812C8.22 8.598 8.01 8.234 6.723 8.315c-.362.02-.695-.25-.72-.611a.662.662 0 01.632-.696c2.15-.13 2.755.897 3.378 2.369l.38 1.232c.023-.002.045-.007.069-.007h18.83c1.493 0 2.708 1.174 2.708 2.618zm-1.354 0c0-.721-.607-1.309-1.353-1.309H10.795l3.422 11.083 15.017-1.262c.01-.002.02 0 .03 0 .01 0 .019-.003.029-.003.746 0 1.353-.588 1.353-1.31z"/></mask></defs><g filter="url(#a)"><path fill="none" stroke="#2592ee" stroke-opacity=".9" d="M29.63 32.545C29.63 33.9 28.494 35 27.094 35s-2.538-1.101-2.538-2.455c0-1.353 1.138-2.454 2.538-2.454s2.538 1.101 2.538 2.454zm-1.352 0c0-.631-.532-1.145-1.185-1.145s-1.185.514-1.185 1.145c0 .632.532 1.146 1.185 1.146s1.184-.514 1.184-1.146zm-11.507 0c0 1.354-1.138 2.455-2.538 2.455s-2.538-1.101-2.538-2.455c0-1.353 1.138-2.454 2.538-2.454s2.538 1.101 2.538 2.454zm-1.353 0c0-.631-.532-1.145-1.185-1.145s-1.185.514-1.185 1.145c0 .632.532 1.146 1.185 1.146s1.185-.514 1.185-1.146zM32 13.22v7.2c0 1.423-1.182 2.582-2.646 2.615h-.002l-15.568 1.309a.637.637 0 01-.06.003c-.021 0-.042-.008-.064-.01a.677.677 0 01-.104.01c-.747 0-1.354.587-1.354 1.31 0 .72.607 1.308 1.354 1.308h15.736c.374 0 .677.292.677.655a.665.665 0 01-.676.654H13.556c-1.493 0-2.707-1.174-2.707-2.618 0-1.206.848-2.22 1.997-2.524L8.738 9.812C8.22 8.598 8.01 8.234 6.723 8.315c-.362.02-.695-.25-.72-.611a.662.662 0 01.632-.696c2.15-.13 2.755.897 3.378 2.369l.38 1.232c.023-.002.045-.007.069-.007h18.83c1.493 0 2.708 1.174 2.708 2.618zm-1.354 0c0-.721-.607-1.309-1.353-1.309H10.795l3.422 11.083 15.017-1.262c.01-.002.02 0 .03 0 .01 0 .019-.003.029-.003.746 0 1.353-.588 1.353-1.31z" mask="url(&quot;#b&quot;)"/><path fill="#2592ee" fill-opacity=".9" d="M29.63 32.545C29.63 33.9 28.494 35 27.094 35s-2.538-1.101-2.538-2.455c0-1.353 1.138-2.454 2.538-2.454s2.538 1.101 2.538 2.454zm-1.352 0c0-.631-.532-1.145-1.185-1.145s-1.185.514-1.185 1.145c0 .632.532 1.146 1.185 1.146s1.184-.514 1.184-1.146zm-11.507 0c0 1.354-1.138 2.455-2.538 2.455s-2.538-1.101-2.538-2.455c0-1.353 1.138-2.454 2.538-2.454s2.538 1.101 2.538 2.454zm-1.353 0c0-.631-.532-1.145-1.185-1.145s-1.185.514-1.185 1.145c0 .632.532 1.146 1.185 1.146s1.185-.514 1.185-1.146zM32 13.22v7.2c0 1.423-1.182 2.582-2.646 2.615h-.002l-15.568 1.309a.637.637 0 01-.06.003c-.021 0-.042-.008-.064-.01a.677.677 0 01-.104.01c-.747 0-1.354.587-1.354 1.31 0 .72.607 1.308 1.354 1.308h15.736c.374 0 .677.292.677.655a.665.665 0 01-.676.654H13.556c-1.493 0-2.707-1.174-2.707-2.618 0-1.206.848-2.22 1.997-2.524L8.738 9.812C8.22 8.598 8.01 8.234 6.723 8.315c-.362.02-.695-.25-.72-.611a.662.662 0 01.632-.696c2.15-.13 2.755.897 3.378 2.369l.38 1.232c.023-.002.045-.007.069-.007h18.83c1.493 0 2.708 1.174 2.708 2.618zm-1.354 0c0-.721-.607-1.309-1.353-1.309H10.795l3.422 11.083 15.017-1.262c.01-.002.02 0 .03 0 .01 0 .019-.003.029-.003.746 0 1.353-.588 1.353-1.31z"/></g><g filter="url(#a)"><path fill="none" stroke="#2592ee" stroke-opacity=".9" d="M29.63 32.545C29.63 33.9 28.494 35 27.094 35s-2.538-1.101-2.538-2.455c0-1.353 1.138-2.454 2.538-2.454s2.538 1.101 2.538 2.454zm-1.352 0c0-.631-.532-1.145-1.185-1.145s-1.185.514-1.185 1.145c0 .632.532 1.146 1.185 1.146s1.184-.514 1.184-1.146zm-11.507 0c0 1.354-1.138 2.455-2.538 2.455s-2.538-1.101-2.538-2.455c0-1.353 1.138-2.454 2.538-2.454s2.538 1.101 2.538 2.454zm-1.353 0c0-.631-.532-1.145-1.185-1.145s-1.185.514-1.185 1.145c0 .632.532 1.146 1.185 1.146s1.185-.514 1.185-1.146zM32 13.22v7.2c0 1.423-1.182 2.582-2.646 2.615h-.002l-15.568 1.309a.637.637 0 01-.06.003c-.021 0-.042-.008-.064-.01a.677.677 0 01-.104.01c-.747 0-1.354.587-1.354 1.31 0 .72.607 1.308 1.354 1.308h15.736c.374 0 .677.292.677.655a.665.665 0 01-.676.654H13.556c-1.493 0-2.707-1.174-2.707-2.618 0-1.206.848-2.22 1.997-2.524L8.738 9.812C8.22 8.598 8.01 8.234 6.723 8.315c-.362.02-.695-.25-.72-.611a.662.662 0 01.632-.696c2.15-.13 2.755.897 3.378 2.369l.38 1.232c.023-.002.045-.007.069-.007h18.83c1.493 0 2.708 1.174 2.708 2.618zm-1.354 0c0-.721-.607-1.309-1.353-1.309H10.795l3.422 11.083 15.017-1.262c.01-.002.02 0 .03 0 .01 0 .019-.003.029-.003.746 0 1.353-.588 1.353-1.31z" mask="url(&quot;#b&quot;)"/><path fill="#2592ee" fill-opacity=".9" d="M29.63 32.545C29.63 33.9 28.494 35 27.094 35s-2.538-1.101-2.538-2.455c0-1.353 1.138-2.454 2.538-2.454s2.538 1.101 2.538 2.454zm-1.352 0c0-.631-.532-1.145-1.185-1.145s-1.185.514-1.185 1.145c0 .632.532 1.146 1.185 1.146s1.184-.514 1.184-1.146zm-11.507 0c0 1.354-1.138 2.455-2.538 2.455s-2.538-1.101-2.538-2.455c0-1.353 1.138-2.454 2.538-2.454s2.538 1.101 2.538 2.454zm-1.353 0c0-.631-.532-1.145-1.185-1.145s-1.185.514-1.185 1.145c0 .632.532 1.146 1.185 1.146s1.185-.514 1.185-1.146zM32 13.22v7.2c0 1.423-1.182 2.582-2.646 2.615h-.002l-15.568 1.309a.637.637 0 01-.06.003c-.021 0-.042-.008-.064-.01a.677.677 0 01-.104.01c-.747 0-1.354.587-1.354 1.31 0 .72.607 1.308 1.354 1.308h15.736c.374 0 .677.292.677.655a.665.665 0 01-.676.654H13.556c-1.493 0-2.707-1.174-2.707-2.618 0-1.206.848-2.22 1.997-2.524L8.738 9.812C8.22 8.598 8.01 8.234 6.723 8.315c-.362.02-.695-.25-.72-.611a.662.662 0 01.632-.696c2.15-.13 2.755.897 3.378 2.369l.38 1.232c.023-.002.045-.007.069-.007h18.83c1.493 0 2.708 1.174 2.708 2.618zm-1.354 0c0-.721-.607-1.309-1.353-1.309H10.795l3.422 11.083 15.017-1.262c.01-.002.02 0 .03 0 .01 0 .019-.003.029-.003.746 0 1.353-.588 1.353-1.31z"/></g><path fill="#bbdef1" d="M29.63 32.545C29.63 33.9 28.494 35 27.094 35s-2.538-1.101-2.538-2.455c0-1.353 1.138-2.454 2.538-2.454s2.538 1.101 2.538 2.454zm-1.352 0c0-.631-.532-1.145-1.185-1.145s-1.185.514-1.185 1.145c0 .632.532 1.146 1.185 1.146s1.184-.514 1.184-1.146zm-11.507 0c0 1.354-1.138 2.455-2.538 2.455s-2.538-1.101-2.538-2.455c0-1.353 1.138-2.454 2.538-2.454s2.538 1.101 2.538 2.454zm-1.353 0c0-.631-.532-1.145-1.185-1.145s-1.185.514-1.185 1.145c0 .632.532 1.146 1.185 1.146s1.185-.514 1.185-1.146zM32 13.22v7.2c0 1.423-1.182 2.582-2.646 2.615h-.002l-15.568 1.309a.637.637 0 01-.06.003c-.021 0-.042-.008-.064-.01a.677.677 0 01-.104.01c-.747 0-1.354.587-1.354 1.31 0 .72.607 1.308 1.354 1.308h15.736c.374 0 .677.292.677.655a.665.665 0 01-.676.654H13.556c-1.493 0-2.707-1.174-2.707-2.618 0-1.206.848-2.22 1.997-2.524L8.738 9.812C8.22 8.598 8.01 8.234 6.723 8.315c-.362.02-.695-.25-.72-.611a.662.662 0 01.632-.696c2.15-.13 2.755.897 3.378 2.369l.38 1.232c.023-.002.045-.007.069-.007h18.83c1.493 0 2.708 1.174 2.708 2.618zm-1.354 0c0-.721-.607-1.309-1.353-1.309H10.795l3.422 11.083 15.017-1.262c.01-.002.02 0 .03 0 .01 0 .019-.003.029-.003.746 0 1.353-.588 1.353-1.31z"/></svg>