<svg xmlns="http://www.w3.org/2000/svg" width="36" height="36" viewBox="0 0 36 36"><defs><filter id="a" width="60.2" height="60.2" x="-12.1" y="-12.1" filterUnits="userSpaceOnUse"><feOffset in="SourceGraphic" result="FeOffset1110Out"/><feGaussianBlur in="FeOffset1110Out" result="FeGaussianBlur1111Out" stdDeviation="3.44 3.44"/></filter><mask id="b" width="2.05" height="2.05" x="-1.02" y="-1.02"><path fill="#fff" d="M6.5 6.5h23v23h-23z"/><path d="M17.625 29l-.483-.518c-.784-.84-5.26-5.638-8.06-8.636-1.345-1.443-2.084-3.289-2.082-5.2a7.094 7.094 0 011.91-4.868c1.227-1.307 2.856-2.027 4.587-2.027 1.524 0 2.967.556 4.128 1.581a6.194 6.194 0 014.128-1.581c1.73 0 3.36.72 4.587 2.028a7.09 7.09 0 011.91 4.866c.002 1.912-.738 3.759-2.083 5.2a83710.834 83710.834 0 00-8.06 8.638zM13.497 9.212c-1.368 0-2.655.57-3.624 1.604a5.582 5.582 0 00-1.507 3.831c-.002 1.52.595 3 1.682 4.163l7.577 8.12 1.606-1.72 5.97-6.4c1.088-1.163 1.685-2.642 1.683-4.163a5.584 5.584 0 00-1.507-3.831c-.97-1.034-2.257-1.604-3.624-1.604-1.378 0-2.672.578-3.644 1.625l-.484.52-.484-.52c-.972-1.047-2.266-1.625-3.644-1.625z"/></mask></defs><g filter="url(#a)"><path fill="none" stroke="#2592ee" stroke-opacity=".9" d="M17.625 29l-.483-.518c-.784-.84-5.26-5.638-8.06-8.636-1.345-1.443-2.084-3.289-2.082-5.2a7.094 7.094 0 011.91-4.868c1.227-1.307 2.856-2.027 4.587-2.027 1.524 0 2.967.556 4.128 1.581a6.194 6.194 0 014.128-1.581c1.73 0 3.36.72 4.587 2.028a7.09 7.09 0 011.91 4.866c.002 1.912-.738 3.759-2.083 5.2a83710.834 83710.834 0 00-8.06 8.638zM13.497 9.212c-1.368 0-2.655.57-3.624 1.604a5.582 5.582 0 00-1.507 3.831c-.002 1.52.595 3 1.682 4.163l7.577 8.12 1.606-1.72 5.97-6.4c1.088-1.163 1.685-2.642 1.683-4.163a5.584 5.584 0 00-1.507-3.831c-.97-1.034-2.257-1.604-3.624-1.604-1.378 0-2.672.578-3.644 1.625l-.484.52-.484-.52c-.972-1.047-2.266-1.625-3.644-1.625z" mask="url(&quot;#b&quot;)"/><path fill="#2592ee" fill-opacity=".9" d="M17.625 29l-.483-.518c-.784-.84-5.26-5.638-8.06-8.636-1.345-1.443-2.084-3.289-2.082-5.2a7.094 7.094 0 011.91-4.868c1.227-1.307 2.856-2.027 4.587-2.027 1.524 0 2.967.556 4.128 1.581a6.194 6.194 0 014.128-1.581c1.73 0 3.36.72 4.587 2.028a7.09 7.09 0 011.91 4.866c.002 1.912-.738 3.759-2.083 5.2a83710.834 83710.834 0 00-8.06 8.638zM13.497 9.212c-1.368 0-2.655.57-3.624 1.604a5.582 5.582 0 00-1.507 3.831c-.002 1.52.595 3 1.682 4.163l7.577 8.12 1.606-1.72 5.97-6.4c1.088-1.163 1.685-2.642 1.683-4.163a5.584 5.584 0 00-1.507-3.831c-.97-1.034-2.257-1.604-3.624-1.604-1.378 0-2.672.578-3.644 1.625l-.484.52-.484-.52c-.972-1.047-2.266-1.625-3.644-1.625z"/></g><g filter="url(#a)"><path fill="none" stroke="#2592ee" stroke-opacity=".9" d="M17.625 29l-.483-.518c-.784-.84-5.26-5.638-8.06-8.636-1.345-1.443-2.084-3.289-2.082-5.2a7.094 7.094 0 011.91-4.868c1.227-1.307 2.856-2.027 4.587-2.027 1.524 0 2.967.556 4.128 1.581a6.194 6.194 0 014.128-1.581c1.73 0 3.36.72 4.587 2.028a7.09 7.09 0 011.91 4.866c.002 1.912-.738 3.759-2.083 5.2a83710.834 83710.834 0 00-8.06 8.638zM13.497 9.212c-1.368 0-2.655.57-3.624 1.604a5.582 5.582 0 00-1.507 3.831c-.002 1.52.595 3 1.682 4.163l7.577 8.12 1.606-1.72 5.97-6.4c1.088-1.163 1.685-2.642 1.683-4.163a5.584 5.584 0 00-1.507-3.831c-.97-1.034-2.257-1.604-3.624-1.604-1.378 0-2.672.578-3.644 1.625l-.484.52-.484-.52c-.972-1.047-2.266-1.625-3.644-1.625z" mask="url(&quot;#b&quot;)"/><path fill="#2592ee" fill-opacity=".9" d="M17.625 29l-.483-.518c-.784-.84-5.26-5.638-8.06-8.636-1.345-1.443-2.084-3.289-2.082-5.2a7.094 7.094 0 011.91-4.868c1.227-1.307 2.856-2.027 4.587-2.027 1.524 0 2.967.556 4.128 1.581a6.194 6.194 0 014.128-1.581c1.73 0 3.36.72 4.587 2.028a7.09 7.09 0 011.91 4.866c.002 1.912-.738 3.759-2.083 5.2a83710.834 83710.834 0 00-8.06 8.638zM13.497 9.212c-1.368 0-2.655.57-3.624 1.604a5.582 5.582 0 00-1.507 3.831c-.002 1.52.595 3 1.682 4.163l7.577 8.12 1.606-1.72 5.97-6.4c1.088-1.163 1.685-2.642 1.683-4.163a5.584 5.584 0 00-1.507-3.831c-.97-1.034-2.257-1.604-3.624-1.604-1.378 0-2.672.578-3.644 1.625l-.484.52-.484-.52c-.972-1.047-2.266-1.625-3.644-1.625z"/></g><path fill="#bee1f3" d="M17.625 29l-.483-.518c-.784-.84-5.26-5.638-8.06-8.636-1.345-1.443-2.084-3.289-2.082-5.2a7.094 7.094 0 011.91-4.868c1.227-1.307 2.856-2.027 4.587-2.027 1.524 0 2.967.556 4.128 1.581a6.194 6.194 0 014.128-1.581c1.73 0 3.36.72 4.587 2.028a7.09 7.09 0 011.91 4.866c.002 1.912-.738 3.759-2.083 5.2a83710.834 83710.834 0 00-8.06 8.638zM13.497 9.212c-1.368 0-2.655.57-3.624 1.604a5.582 5.582 0 00-1.507 3.831c-.002 1.52.595 3 1.682 4.163l7.577 8.12 1.606-1.72 5.97-6.4c1.088-1.163 1.685-2.642 1.683-4.163a5.584 5.584 0 00-1.507-3.831c-.97-1.034-2.257-1.604-3.624-1.604-1.378 0-2.672.578-3.644 1.625l-.484.52-.484-.52c-.972-1.047-2.266-1.625-3.644-1.625z"/></svg>